<?xml version="1.0" standalone="no"?>
<!DOCTYPE svg PUBLIC "-//W3C//DTD SVG 1.1//EN" "http://www.w3.org/Graphics/SVG/1.1/DTD/svg11.dtd">
<svg xmlns="http://www.w3.org/2000/svg">
<defs >
<font id="NotoSans" horiz-adv-x="599" ><font-face
    font-family="Noto Sans SemiBold"
    units-per-em="1000"
    panose-1="2 11 7 2 4 5 4 2 2 4"
    ascent="1069"
    descent="-293"
    alphabetic="0" />
<glyph unicode=" " glyph-name="space" horiz-adv-x="260" />
<glyph unicode="!" glyph-name="exclam" horiz-adv-x="280" d="M188 223H92L67 714H213L188 223ZM63 64Q63 106 85 123T140 141Q170 141 193 124T216 64Q216 23 193 5T140 -13Q107 -13 85 5T63 64Z" />
<glyph unicode="&quot;" glyph-name="quotedbl" horiz-adv-x="448" d="M186 714L166 456H85L65 714H186ZM383 714L363 456H282L262 714H383Z" />
<glyph unicode="#" glyph-name="numbersign" horiz-adv-x="646" d="M485 421L459 290H589V202H442L403 0H310L349 202H236L198 0H106L143 202H23V290H160L186 421H59V509H202L241 713H334L296 509H410L449 713H540L502 509H622V421H485ZM252 290H366L392 421H278L252
290Z" />
<glyph unicode="$" glyph-name="dollar" horiz-adv-x="572" d="M253 43Q191 45 140 55T51 82V194Q89 176 145 161T253 144V314Q180 340 136 366T71 427T50 510Q50 585 106 628T253 679V759H319V681Q374 679 421 668T511 639L472 540Q435 555 396 564T319 577V411Q377
392 424 369T499 312T527 222Q527 150 475 103T319 46V-58H253V43ZM253 575Q174 566 174 513Q174 485 192 468T253 436V575ZM319 148Q403 159 403 215Q403 242 384 258T319 290V148Z" />
<glyph unicode="%" glyph-name="percent" horiz-adv-x="875" d="M197 724Q278 724 319 666T361 501Q361 395 322 336T197 276Q119 276 79 335T38 501Q38 607 76 665T197 724ZM686 714L290 0H188L584 714H686ZM198 637Q142 637 142 500Q142 363 198 363Q256 363
256 500Q256 637 198 637ZM674 439Q753 439 795 380T837 216Q837 110 798 51T674 -9Q595 -9 555 50T514 216Q514 321 552 380T674 439ZM674 351Q618 351 618 215Q618 77 674 77Q733 77 733 215Q733 351 674 351Z" />
<glyph unicode="&amp;" glyph-name="ampersand" horiz-adv-x="743" d="M308 724Q392 724 445 684T498 570Q498 503 457 457T355 376L514 222Q536 254 551 293T578 373H708Q693 314 666 254T596 143L742 0H583L515 66Q470 31 416 11T291 -10Q176 -10 111 44T45
190Q45 266 82 312T185 395Q148 437 128 476T108 563Q108 638 163 681T308 724ZM306 626Q275 626 251 610T227 557Q227 528 241 502T283 447Q332 474 355 500T379 560Q379 592 357 609T306 626ZM259 319Q221 294 199 267T177 200Q177 153 211 125T298 97Q343 97
377 110T438 143L259 319Z" />
<glyph unicode="&apos;" glyph-name="quotesingle" horiz-adv-x="251" d="M186 714L166 456H85L65 714H186Z" />
<glyph unicode="(" glyph-name="parenleft" horiz-adv-x="324" d="M40 274Q40 396 75 509T187 714H294Q225 620 190 507T155 275Q155 159 190 47T293 -158H187Q111 -70 76 41T40 274Z" />
<glyph unicode=")" glyph-name="parenright" horiz-adv-x="324" d="M284 274Q284 153 249 42T137 -158H31Q99 -65 134 47T170 275Q170 394 135 507T30 714H137Q213 623 248 510T284 274Z" />
<glyph unicode="*" glyph-name="asterisk" horiz-adv-x="547" d="M331 760L311 575L496 628L512 516L339 503L452 353L350 299L271 460L200 299L95 353L206 503L35 517L52 628L234 575L214 760H331Z" />
<glyph unicode="+" glyph-name="plus" horiz-adv-x="572" d="M332 399H525V306H332V111H238V306H46V399H238V596H332V399Z" />
<glyph unicode="," glyph-name="comma" horiz-adv-x="279" d="M212 105Q198 52 174 -11T126 -129H35Q49 -71 63 -4T84 116H205L212 105Z" />
<glyph unicode="-" glyph-name="hyphen" horiz-adv-x="322" d="M34 215V321H288V215H34Z" />
<glyph unicode="." glyph-name="period" horiz-adv-x="279" d="M63 64Q63 106 85 123T139 141Q170 141 193 124T216 64Q216 23 193 5T139 -13Q107 -13 85 5T63 64Z" />
<glyph unicode="/" glyph-name="slash" horiz-adv-x="398" d="M391 714L125 0H8L274 714H391Z" />
<glyph unicode="0" glyph-name="zero" horiz-adv-x="572" d="M530 357Q530 242 506 160T428 34T285 -10Q159 -10 100 87T41 357Q41 473 65 555T142 681T285 725Q410 725 470 628T530 357ZM168 357Q168 226 193 160T285 94Q350 94 376 159T403 357Q403 489 377
555T285 621Q219 621 194 555T168 357Z" />
<glyph unicode="1" glyph-name="one" horiz-adv-x="572" d="M391 0H265V445Q265 477 266 513T269 580Q259 570 244 557T213 529L133 465L70 543L286 714H391V0Z" />
<glyph unicode="2" glyph-name="two" horiz-adv-x="572" d="M532 0H43V93L225 277Q279 332 313 371T364 444T381 519Q381 568 353 592T279 617Q234 617 195 599T114 546L45 629Q89 667 145 695T286 724Q355 724 405 700T481 632T508 532Q508 474 485 426T419 329T315
224L202 115V109H532V0Z" />
<glyph unicode="3" glyph-name="three" horiz-adv-x="572" d="M504 551Q504 478 462 435T352 376V373Q438 362 482 320T526 206Q526 144 496 95T404 18T243 -10Q185 -10 135 -1T41 29V140Q86 117 137 105T233 93Q320 93 356 124T392 212Q392 265 350 291T210 317H150V418H211Q306
418 342 448T378 529Q378 572 350 596T266 620Q212 620 173 603T103 565L43 652Q83 682 139 703T272 724Q383 724 443 678T504 551Z" />
<glyph unicode="4" glyph-name="four" horiz-adv-x="572" d="M554 153H461V0H337V153H19V247L340 716H461V256H554V153ZM337 416Q337 443 338 474T340 531T343 572H339Q321 530 296 494L134 256H337V416Z" />
<glyph unicode="5" glyph-name="five" horiz-adv-x="572" d="M291 449Q359 449 411 425T492 352T522 235Q522 121 451 56T244 -10Q188 -10 139 0T54 29V141Q91 121 143 108T241 95Q312 95 352 126T393 223Q393 282 355 313T237 345Q209 345 177 340T123 330L69
360L96 714H472V604H207L192 439Q209 442 232 445T291 449Z" />
<glyph unicode="6" glyph-name="six" horiz-adv-x="572" d="M43 304Q43 365 51 425T82 539T143 634T242 699T389 723Q410 723 437 721T482 715V611Q442 622 396 622Q306 622 256 590T186 501T162 374H168Q189 409 228 433T329 458Q422 458 478 400T534 235Q534
120 470 55T297 -10Q226 -10 168 24T77 127T43 304ZM295 93Q346 93 378 127T410 234Q410 292 382 325T298 359Q259 359 230 343T186 301T170 248Q170 211 184 176T225 117T295 93Z" />
<glyph unicode="7" glyph-name="seven" horiz-adv-x="572" d="M120 0L398 605H33V714H533V629L255 0H120Z" />
<glyph unicode="8" glyph-name="eight" horiz-adv-x="572" d="M286 723Q348 723 398 704T478 647T508 552Q508 487 470 446T377 377Q418 357 453 331T509 269T531 185Q531 125 500 82T415 14T287 -10Q168 -10 104 41T40 181Q40 230 59 266T111 329T181 373Q132
403 98 445T63 553Q63 609 93 647T174 704T286 723ZM285 628Q241 628 213 606T184 544Q184 500 214 475T287 429Q328 447 357 473T387 544Q387 584 359 606T285 628ZM160 187Q160 143 191 115T285 86Q347 86 379 114T411 187Q411 232 375 261T290 314L276 321Q222
297 191 265T160 187Z" />
<glyph unicode="9" glyph-name="nine" horiz-adv-x="572" d="M530 409Q530 348 521 288T490 174T429 79T330 14T183 -10Q163 -10 135 -8T90 -2V102Q108 97 131 94T176 91Q267 91 316 123T386 212T410 338H404Q382 303 345 279T241 255Q150 255 95 313T39 477Q39
592 103 657T276 723Q347 723 404 689T496 586T530 409ZM278 619Q227 619 195 585T163 479Q163 421 190 387T275 353Q314 353 342 369T387 411T403 465Q403 501 389 537T347 596T278 619Z" />
<glyph unicode=":" glyph-name="colon" horiz-adv-x="279" d="M63 476Q63 519 85 536T139 554Q170 554 193 537T216 476Q216 435 193 417T139 399Q107 399 85 417T63 476ZM63 64Q63 106 85 123T139 141Q170 141 193 124T216 64Q216 23 193 5T139 -13Q107 -13 85 5T63 64Z" />
<glyph unicode=";" glyph-name="semicolon" horiz-adv-x="279" d="M62 476Q62 519 84 536T138 554Q170 554 192 537T215 476Q215 435 193 417T138 399Q106 399 84 417T62 476ZM209 105Q195 52 171 -11T123 -129H31Q45 -71 59 -4T81 116H202L209 105Z" />
<glyph unicode="&lt;" glyph-name="less" horiz-adv-x="572" d="M525 105L46 317V379L525 619V516L175 353L525 208V105Z" />
<glyph unicode="=" glyph-name="equal" horiz-adv-x="572" d="M48 402V495H523V402H48ZM48 209V302H523V209H48Z" />
<glyph unicode="&gt;" glyph-name="greater" horiz-adv-x="572" d="M46 208L396 352L46 516V619L525 379V317L46 105V208Z" />
<glyph unicode="?" glyph-name="question" horiz-adv-x="461" d="M137 256Q137 308 156 343T226 417Q260 442 279 461T308 498T317 542Q317 580 291 600T215 620Q171 620 131 607T51 574L6 668Q52 692 105 708T225 724Q325 724 380 675T436 548Q436 505 423 475T383
418T319 363Q288 339 272 322T250 288T244 248V223H137V256ZM118 64Q118 106 140 123T195 141Q226 141 248 124T271 64Q271 23 249 5T195 -13Q163 -13 141 5T118 64Z" />
<glyph unicode="@" glyph-name="at" horiz-adv-x="898" d="M845 358Q845 311 834 267T801 186T746 129T667 107Q627 107 600 127T562 179H556Q536 149 502 128T419 107Q334 107 289 159T243 297Q243 364 270 415T349 496T470 525Q516 525 563 517T637 499L627
295Q627 282 627 273T626 260Q626 215 640 200T673 185Q698 185 716 208T743 271T752 359Q752 446 717 507T620 600T481 632Q372 632 298 587T186 464T147 286Q147 146 221 72T437 -3Q496 -3 556 10T665 41V-43Q619 -62 562 -74T439 -86Q317 -86 231 -42T99 84T53
283Q53 375 82 453T168 590T303 681T480 714Q586 714 668 671T798 548T845 358ZM343 295Q343 237 366 211T431 185Q483 185 505 223T531 324L537 439Q525 442 509 444T474 446Q426 446 397 424T356 368T343 295Z" />
<glyph unicode="A" glyph-name="A" horiz-adv-x="671" d="M534 0L469 189H200L136 0H0L262 717H408L670 0H534ZM374 483Q370 497 362 521T347 570T335 613Q330 593 323 567T308 518T298 483L235 299H436L374 483Z" />
<glyph unicode="B" glyph-name="B" horiz-adv-x="664" d="M308 714Q447 714 518 674T590 535Q590 473 559 431T470 379V374Q509 367 541 349T591 296T610 205Q610 108 542 54T354 0H93V714H308ZM325 423Q401 423 429 447T458 518Q458 566 424 587T315 608H221V423H325ZM221
320V107H337Q415 107 445 137T476 217Q476 263 445 291T331 320H221Z" />
<glyph unicode="C" glyph-name="C" horiz-adv-x="635" d="M397 616Q299 616 246 546T192 356Q192 235 242 167T396 98Q441 98 484 107T574 133V24Q530 6 486 -2T383 -10Q273 -10 201 35T94 163T59 357Q59 465 98 547T212 677T397 724Q451 724 503 712T602 677L558
572Q520 589 480 602T397 616Z" />
<glyph unicode="D" glyph-name="D" horiz-adv-x="736" d="M677 364Q677 183 576 92T294 0H93V714H315Q425 714 506 674T632 557T677 364ZM543 360Q543 488 485 548T315 608H221V107H298Q543 107 543 360Z" />
<glyph unicode="E" glyph-name="E" horiz-adv-x="558" d="M499 0H93V714H499V607H221V425H481V318H221V108H499V0Z" />
<glyph unicode="F" glyph-name="F" horiz-adv-x="538" d="M219 0H93V714H498V607H219V397H479V290H219V0Z" />
<glyph unicode="G" glyph-name="G" horiz-adv-x="726" d="M378 392H648V29Q591 11 531 1T395 -10Q233 -10 146 86T59 358Q59 469 102 551T229 679T431 724Q489 724 543 712T643 681L599 576Q564 592 520 604T428 616Q355 616 302 584T221 494T192 356Q192 280
214 222T284 131T409 98Q447 98 473 102T522 111V283H378V392Z" />
<glyph unicode="H" glyph-name="H" horiz-adv-x="756" d="M663 0H535V317H221V0H93V714H221V426H535V714H663V0Z" />
<glyph unicode="I" glyph-name="I" horiz-adv-x="370" d="M335 0H35V73L121 105V608L35 641V714H335V641L249 608V105L335 73V0Z" />
<glyph unicode="J" glyph-name="J" horiz-adv-x="309" d="M8 -202Q-19 -202 -40 -199T-76 -191V-84Q-60 -88 -42 -91T-4 -94Q22 -94 43 -84T78 -47T91 30V714H219V33Q219 -92 161 -147T8 -202Z" />
<glyph unicode="K" glyph-name="K" horiz-adv-x="647" d="M647 0H500L288 316L221 263V0H93V714H221V378Q241 403 262 429T304 481L497 714H642L380 400L647 0Z" />
<glyph unicode="L" glyph-name="L" horiz-adv-x="550" d="M93 0V714H221V108H519V0H93Z" />
<glyph unicode="M" glyph-name="M" horiz-adv-x="929" d="M400 0L204 585H200Q201 565 203 529T206 450T208 370V0H93V714H271L459 153H463L659 714H837V0H715V376Q715 410 716 450T719 527T722 584H718L514 0H400Z" />
<glyph unicode="N" glyph-name="N" horiz-adv-x="793" d="M700 0H541L203 560H199Q202 515 204 464T208 360V0H93V714H251L588 158H591Q589 198 587 250T584 351V714H700V0Z" />
<glyph unicode="O" glyph-name="O" horiz-adv-x="790" d="M731 358Q731 247 695 165T583 36T395 -10Q281 -10 207 36T96 165T59 359Q59 469 95 551T206 679T396 725Q509 725 583 680T694 552T731 358ZM194 358Q194 237 242 168T395 99Q501 99 548 168T596 358Q596
479 549 548T396 617Q291 617 243 548T194 358Z" />
<glyph unicode="P" glyph-name="P" horiz-adv-x="619" d="M306 714Q445 714 508 656T572 496Q572 435 546 382T459 296T292 263H221V0H93V714H306ZM298 608H221V369H279Q357 369 399 397T442 491Q442 550 407 579T298 608Z" />
<glyph unicode="Q" glyph-name="Q" horiz-adv-x="790" d="M731 358Q731 234 685 145T543 17L715 -170H545L412 -10Q408 -10 404 -10T395 -10Q281 -10 207 36T96 165T59 359Q59 469 95 551T206 679T396 725Q509 725 583 680T694 552T731 358ZM194 358Q194 237 242
168T395 99Q501 99 548 168T596 358Q596 479 549 548T396 617Q291 617 243 548T194 358Z" />
<glyph unicode="R" glyph-name="R" horiz-adv-x="646" d="M296 714Q437 714 504 662T572 504Q572 452 553 415T502 354T435 314L640 0H496L325 282H221V0H93V714H296ZM288 607H221V387H292Q371 387 406 415T442 500Q442 558 405 582T288 607Z" />
<glyph unicode="S" glyph-name="S" horiz-adv-x="550" d="M508 195Q508 100 439 45T248 -10Q130 -10 48 30V150Q93 130 147 114T257 97Q321 97 351 122T381 188Q381 233 343 259T232 316Q188 335 148 361T82 427T56 529Q56 621 120 672T293 724Q350 724 399 712T499
678L458 575Q413 594 373 605T289 616Q237 616 210 593T183 532Q183 502 198 482T244 445T326 406Q383 381 424 354T486 289T508 195Z" />
<glyph unicode="T" glyph-name="T" horiz-adv-x="570" d="M349 0H221V606H16V714H554V606H349V0Z" />
<glyph unicode="U" glyph-name="U" horiz-adv-x="747" d="M659 252Q659 178 628 119T532 25T370 -10Q231 -10 159 62T87 254V714H215V267Q215 179 255 139T374 99Q457 99 494 142T532 268V714H659V252Z" />
<glyph unicode="V" glyph-name="V" horiz-adv-x="631" d="M631 714L384 0H247L0 714H131L275 277Q281 259 289 231T304 172T316 120Q319 142 326 172T341 230T356 277L500 714H631Z" />
<glyph unicode="W" glyph-name="W" horiz-adv-x="953" d="M948 714L763 0H622L509 410Q503 430 496 461T483 523T475 567Q473 553 468 524T455 462T441 408L331 0H189L5 714H133L231 307Q238 281 244 248T257 183T266 126Q269 151 275 184T288 248T301 302L413
714H537L651 301Q658 279 665 247T678 182T687 126Q690 151 695 183T708 248T722 307L820 714H948Z" />
<glyph unicode="X" glyph-name="X" horiz-adv-x="636" d="M635 0H489L314 285L138 0H2L239 370L17 714H158L320 448L481 714H618L395 365L635 0Z" />
<glyph unicode="Y" glyph-name="Y" horiz-adv-x="602" d="M301 399L464 714H602L365 278V0H237V273L0 714H139L301 399Z" />
<glyph unicode="Z" glyph-name="Z" horiz-adv-x="576" d="M547 0H29V87L384 606H39V714H537V627L183 108H547V0Z" />
<glyph unicode="[" glyph-name="bracketleft" horiz-adv-x="330" d="M305 -158H74V714H305V623H185V-67H305V-158Z" />
<glyph unicode="\" glyph-name="backslash" horiz-adv-x="398" d="M124 714L390 0H274L8 714H124Z" />
<glyph unicode="]" glyph-name="bracketright" horiz-adv-x="330" d="M25 -67H145V623H25V714H256V-158H25V-67Z" />
<glyph unicode="^" glyph-name="asciicircum" horiz-adv-x="572" d="M29 259L242 718H304L543 259H441L275 590L130 259H29Z" />
<glyph unicode="_" glyph-name="underscore" horiz-adv-x="423" d="M425 -156H-2V-90H425V-156Z" />
<glyph unicode="`" glyph-name="grave" horiz-adv-x="331" d="M184 766Q197 744 216 717T255 663T291 619V606H208Q183 624 150 652T87 709T40 756V766H184Z" />
<glyph unicode="a" glyph-name="a" horiz-adv-x="588" d="M297 552Q402 552 456 506T511 364V0H422L397 75H393Q358 31 319 11T213 -10Q140 -10 92 31T44 158Q44 242 105 284T292 331L386 334V361Q386 412 361 434T291 457Q250 457 213 445T138 417L98 505Q138
526 189 539T297 552ZM320 254Q237 251 205 226T173 157Q173 118 195 102T255 85Q310 85 348 116T386 210V256L320 254Z" />
<glyph unicode="b" glyph-name="b" horiz-adv-x="626" d="M207 580Q207 548 205 518T201 471H207Q229 505 267 528T366 552Q460 552 518 481T577 272Q577 132 518 61T363 -10Q302 -10 266 12T207 63H198L175 0H81V760H207V580ZM330 450Q262 450 235 409T207 283V272Q207
185 233 139T332 93Q388 93 418 139T448 273Q448 362 418 406T330 450Z" />
<glyph unicode="c" glyph-name="c" horiz-adv-x="501" d="M300 -10Q183 -10 116 57T49 268Q49 368 82 430T175 522T310 552Q361 552 401 542T469 518L432 419Q401 431 370 439T310 448Q178 448 178 269Q178 182 211 138T308 94Q353 94 388 105T455 135V26Q424
8 389 -1T300 -10Z" />
<glyph unicode="d" glyph-name="d" horiz-adv-x="626" d="M260 -10Q165 -10 107 61T49 270Q49 410 108 481T263 552Q323 552 361 529T423 473H429Q426 487 423 516T420 570V760H546V0H448L425 71H420Q397 37 359 14T260 -10ZM298 92Q368 92 396 132T426 253V269Q426
356 399 402T296 449Q238 449 208 402T177 268Q177 182 208 137T298 92Z" />
<glyph unicode="e" glyph-name="e" horiz-adv-x="581" d="M299 552Q408 552 471 487T535 306V242H177Q179 168 218 128T326 87Q378 87 420 97T506 128V27Q466 8 423 -1T320 -10Q241 -10 180 20T84 113T49 267Q49 406 118 479T299 552ZM299 459Q248 459 217 427T180
330H413Q412 386 385 422T299 459Z" />
<glyph unicode="f" glyph-name="f" horiz-adv-x="371" d="M362 447H231V0H105V447H18V507L105 543V580Q105 684 154 724T290 765Q329 765 361 759T415 744L383 650Q366 655 346 659T301 664Q265 664 248 642T231 577V542H362V447Z" />
<glyph unicode="g" glyph-name="g" horiz-adv-x="626" d="M263 552Q366 552 424 472H429L441 542H546V-4Q546 -120 481 -180T285 -240Q227 -240 178 -233T85 -207V-103Q178 -145 293 -145Q355 -145 387 -111T420 -10V4Q420 19 421 39T424 71H420Q392 29 352 10T260
-10Q161 -10 105 64T49 270Q49 402 105 477T263 552ZM296 449Q178 449 178 268Q178 90 298 90Q364 90 395 126T427 250V269Q427 365 396 407T296 449Z" />
<glyph unicode="h" glyph-name="h" horiz-adv-x="642" d="M207 579Q207 547 205 517T200 471H208Q234 512 276 532T369 552Q461 552 513 505T565 353V0H439V328Q439 450 339 450Q263 450 235 402T207 265V0H81V760H207V579Z" />
<glyph unicode="i" glyph-name="i" horiz-adv-x="287" d="M144 751Q173 751 193 737T214 685Q214 648 194 633T144 618Q115 618 95 633T74 685Q74 722 94 736T144 751ZM207 542V0H81V542H207Z" />
<glyph unicode="j" glyph-name="j" horiz-adv-x="287" d="M74 685Q74 722 94 736T144 751Q173 751 193 737T214 685Q214 648 194 633T144 618Q115 618 95 633T74 685ZM29 -240Q4 -240 -20 -237T-61 -228V-128Q-44 -133 -28 -135T8 -138Q39 -138 60 -121T81 -54V542H207V-67Q207
-142 166 -191T29 -240Z" />
<glyph unicode="k" glyph-name="k" horiz-adv-x="588" d="M206 399Q206 373 204 344T200 289H203Q215 307 233 330T267 371L427 542H570L353 308L584 0H437L269 232L206 180V0H81V760H206V399Z" />
<glyph unicode="l" glyph-name="l" horiz-adv-x="287" d="M207 0H81V760H207V0Z" />
<glyph unicode="m" glyph-name="m" horiz-adv-x="964" d="M702 552Q794 552 840 505T887 353V0H761V329Q761 450 669 450Q603 450 575 407T547 282V0H421V329Q421 450 328 450Q259 450 233 402T207 265V0H81V542H178L196 471H203Q227 513 270 532T361 552Q422
552 463 532T527 468H537Q562 512 607 532T702 552Z" />
<glyph unicode="n" glyph-name="n" horiz-adv-x="642" d="M371 552Q462 552 513 505T565 353V0H439V328Q439 450 339 450Q263 450 235 402T207 265V0H81V542H178L196 471H203Q229 513 274 532T371 552Z" />
<glyph unicode="o" glyph-name="o" horiz-adv-x="614" d="M565 272Q565 137 495 64T305 -10Q231 -10 173 23T82 119T49 272Q49 407 118 479T308 552Q383 552 441 520T532 425T565 272ZM178 272Q178 186 208 139T307 92Q375 92 405 139T436 272Q436 358 406 404T306
450Q239 450 209 404T178 272Z" />
<glyph unicode="p" glyph-name="p" horiz-adv-x="626" d="M366 552Q461 552 519 482T577 272Q577 133 518 62T363 -10Q303 -10 266 12T207 63H199Q202 44 204 22T207 -20V-240H81V542H183L201 470H207Q229 504 267 528T366 552ZM330 450Q263 450 236 410T207 289V273Q207
186 233 140T332 93Q391 93 419 141T448 274Q448 358 420 404T330 450Z" />
<glyph unicode="q" glyph-name="q" horiz-adv-x="626" d="M420 -11Q420 8 421 30T425 71H419Q397 37 359 14T259 -10Q165 -10 107 61T49 270Q49 409 108 480T262 552Q323 552 361 529T424 471H428L441 542H546V-240H420V-11ZM299 90Q368 90 396 130T426 251V269Q426
357 398 403T297 449Q236 449 207 402T178 268Q178 181 207 136T299 90Z" />
<glyph unicode="r" glyph-name="r" horiz-adv-x="439" d="M365 552Q378 552 393 551T420 547L409 430Q399 432 385 433T360 435Q320 435 285 419T229 368T207 281V0H81V542H178L196 448H202Q226 491 268 521T365 552Z" />
<glyph unicode="s" glyph-name="s" horiz-adv-x="490" d="M450 157Q450 75 392 33T224 -10Q167 -10 127 -2T48 23V130Q88 111 136 98T228 85Q280 85 303 101T326 144Q326 160 317 172T282 200T203 237Q151 257 117 278T65 329T47 404Q47 477 104 514T258 552Q308
552 352 542T442 512L402 419Q364 435 328 446T254 457Q171 457 171 410Q171 393 181 381T218 356T294 323Q342 304 377 284T431 233T450 157Z" />
<glyph unicode="t" glyph-name="t" horiz-adv-x="406" d="M291 91Q314 91 336 95T378 106V12Q358 3 326 -3T259 -10Q213 -10 175 5T115 59T93 165V447H20V502L100 546L140 661H219V542H373V447H219V166Q219 128 239 110T291 91Z" />
<glyph unicode="u" glyph-name="u" horiz-adv-x="642" d="M562 542V0H463L446 70H440Q413 28 368 9T271 -10Q180 -10 129 37T77 188V542H203V213Q203 92 303 92Q379 92 407 139T436 277V542H562Z" />
<glyph unicode="v" glyph-name="v" horiz-adv-x="546" d="M206 0L0 542H133L241 229Q251 200 259 165T270 106H274Q277 131 286 165T305 229L413 542H546L340 0H206Z" />
<glyph unicode="w" glyph-name="w" horiz-adv-x="830" d="M465 233Q460 252 453 280T439 340T425 397T416 437H412Q409 423 403 397T390 340T376 280T363 232L300 0H162L10 543H137L204 284Q211 257 217 225T228 162T236 112H240Q242 130 247 161T259 221T269
266L347 543H485L560 266Q564 248 570 219T582 161T588 113H592Q594 129 599 159T611 223T626 284L694 543H819L665 0H525L465 233Z" />
<glyph unicode="x" glyph-name="x" horiz-adv-x="560" d="M198 277L19 542H162L280 358L398 542H541L360 277L550 0H407L280 197L153 0H10L198 277Z" />
<glyph unicode="y" glyph-name="y" horiz-adv-x="547" d="M0 542H137L245 236Q256 207 263 179T273 122H277Q281 147 289 177T307 236L411 542H547L316 -72Q285 -153 232 -196T100 -240Q75 -240 57 -238T25 -232V-132Q36 -134 51 -136T84 -138Q131 -138 158 -111T201
-42L217 2L0 542Z" />
<glyph unicode="z" glyph-name="z" horiz-adv-x="481" d="M448 0H32V77L298 446H47V542H440V457L179 97H448V0Z" />
<glyph unicode="{" glyph-name="braceleft" horiz-adv-x="389" d="M352 -158Q237 -158 191 -123T144 -13V138Q144 187 112 207T20 228V328Q80 328 112 348T144 417V570Q144 645 191 679T352 714V618Q308 617 283 601T257 540V395Q257 299 145 281V275Q257 258
257 162V16Q257 -29 282 -45T352 -62V-158Z" />
<glyph unicode="|" glyph-name="bar" horiz-adv-x="551" d="M228 758H323V-232H228V758Z" />
<glyph unicode="}" glyph-name="braceright" horiz-adv-x="389" d="M37 -62Q81 -61 106 -45T132 16V162Q132 257 244 275V281Q132 299 132 394V540Q132 585 107 601T37 618V714Q152 714 198 679T245 569V418Q245 369 277 349T369 328V228Q309 227 277 207T245
138V-14Q245 -89 198 -123T37 -158V-62Z" />
<glyph unicode="~" glyph-name="asciitilde" horiz-adv-x="572" d="M268 308Q232 324 207 329T160 335Q131 335 101 318T46 276V376Q95 429 169 429Q198 429 227 423T303 397Q339 381 364 376T411 370Q440 370 470 387T525 429V330Q476 276 402 276Q373 276 344
282T268 308Z" />
<glyph unicode="&#xa0;" glyph-name="uni00A0" horiz-adv-x="260" />
<glyph unicode="&#xa1;" glyph-name="exclamdown" horiz-adv-x="280" d="M216 469Q216 426 194 409T139 392Q108 392 86 409T63 469Q63 510 85 528T139 546Q171 546 193 528T216 469ZM90 309H186L211 -181H65L90 309Z" />
<glyph unicode="&#xa2;" glyph-name="cent" horiz-adv-x="572" d="M359 646Q402 644 437 635T499 613L462 513Q430 526 399 534T339 543Q207 543 207 363Q207 273 240 231T337 188Q383 188 416 197T485 223V116Q456 102 426 94T358 84V-10H279V88Q185 101 132
166T78 362Q78 455 103 513T173 602T279 642V724H359V646Z" />
<glyph unicode="&#xa3;" glyph-name="sterling" horiz-adv-x="572" d="M339 724Q393 724 440 712T524 683L484 587Q452 601 417 611T347 621Q306 621 280 598T254 521V410H445V319H254V236Q254 180 231 152T182 109H546V0H37V103Q79 118 104 146T129 235V319H39V410H129V525Q129
594 156 637T231 702T339 724Z" />
<glyph unicode="&#xa4;" glyph-name="currency" horiz-adv-x="572" d="M91 353Q91 381 99 406T121 454L57 519L120 581L183 518Q205 532 231 540T285 548Q339 548 387 518L451 581L514 520L451 455Q464 434 472 408T480 353Q480 297 451 250L512 187L451 126L387
188Q365 175 339 167T285 159Q227 159 183 188L120 127L58 188L121 251Q107 274 99 299T91 353ZM179 353Q179 309 210 278T285 247Q330 247 361 278T393 353Q393 398 362 429T285 460Q241 460 210 429T179 353Z" />
<glyph unicode="&#xa5;" glyph-name="yen" horiz-adv-x="572" d="M285 399L433 714H563L371 345H477V267H345V194H477V116H345V0H225V116H93V194H225V267H93V345H197L7 714H138L285 399Z" />
<glyph unicode="&#xa6;" glyph-name="brokenbar" horiz-adv-x="551" d="M228 758H323V367H228V758ZM228 159H323V-232H228V159Z" />
<glyph unicode="&#xa7;" glyph-name="section" horiz-adv-x="496" d="M62 393Q62 438 83 468T132 515Q100 535 82 563T63 629Q63 691 116 728T261 765Q313 765 354 755T436 727L400 643Q367 658 333 669T257 681Q209 681 189 669T168 631Q168 605 194 587T283
545Q355 517 398 479T441 382Q441 332 422 302T374 253Q406 234 423 208T440 145Q440 74 383 33T224 -8Q170 -8 129 1T55 29V120Q91 102 138 88T226 74Q288 74 311 92T334 137Q334 154 326 167T294 193T222 226Q171 246 136 267T81 318T62 393ZM158 403Q158 371
187 347T283 296L295 291Q313 302 328 321T343 369Q343 402 317 426T213 477Q192 470 175 451T158 403Z" />
<glyph unicode="&#xa8;" glyph-name="dieresis" horiz-adv-x="597" d="M141 684Q141 716 158 730T201 744Q225 744 243 730T262 684Q262 654 244 640T201 625Q176 625 159 639T141 684ZM335 684Q335 716 352 730T395 744Q419 744 437 730T456 684Q456 654 438
640T395 625Q370 625 353 639T335 684Z" />
<glyph unicode="&#xa9;" glyph-name="copyright" horiz-adv-x="832" d="M416 -10Q336 -10 269 17T153 93T76 210T49 357Q49 435 76 501T153 618T270 696T416 724Q492 724 558 697T675 621T754 504T783 357Q783 277 756 210T680 94T563 17T416 -10ZM416 50Q478
50 533 72T629 136T694 233T718 357Q718 420 696 476T632 574T536 641T416 665Q329 665 260 626T152 517T112 357Q112 269 151 200T258 90T416 50ZM431 130Q330 130 280 192T230 357Q230 423 253 474T323 554T435 584Q500 584 558 554L529 489Q479 515 436 515Q377
515 345 473T312 357Q312 281 340 240T435 198Q458 198 486 204T540 221V154Q516 143 491 137T431 130Z" />
<glyph unicode="&#xaa;" glyph-name="ordfeminine" horiz-adv-x="373" d="M191 722Q260 722 294 690T328 597V379H269L255 429Q235 403 205 388T139 373Q88 373 57 399T26 478Q26 534 69 559T192 587L244 589V602Q244 629 226 642T178 655Q154 655 128 647T74
627L46 686Q75 701 111 711T191 722ZM196 533Q145 531 129 516T113 479Q113 458 125 448T157 438Q199 438 221 459T244 516V536L196 533Z" />
<glyph unicode="&#xab;" glyph-name="guillemotleft" horiz-adv-x="575" d="M40 276L216 490L307 441L169 270L307 100L216 50L40 263V276ZM269 276L445 490L535 441L398 270L535 100L445 50L269 263V276Z" />
<glyph unicode="&#xac;" glyph-name="logicalnot" horiz-adv-x="572" d="M525 399V124H432V306H46V399H525Z" />
<glyph unicode="&#xad;" glyph-name="uni00AD" horiz-adv-x="322" d="M34 215V321H288V215H34Z" />
<glyph unicode="&#xae;" glyph-name="registered" horiz-adv-x="832" d="M416 -10Q336 -10 269 17T153 93T76 210T49 357Q49 435 76 501T153 618T270 696T416 724Q492 724 558 697T675 621T754 504T783 357Q783 277 756 210T680 94T563 17T416 -10ZM416 50Q478
50 533 72T629 136T694 233T718 357Q718 420 696 476T632 574T536 641T416 665Q329 665 260 626T152 517T112 357Q112 269 151 200T258 90T416 50ZM276 138V578H407Q489 578 527 545T565 446Q565 399 541 372T487 332L603 138H514L417 308H355V138H276ZM405 373Q444
373 464 393T485 444Q485 479 467 495T404 511H355V373H405Z" />
<glyph unicode="&#xaf;" glyph-name="overscore" horiz-adv-x="500" d="M503 760H-3V846H503V760Z" />
<glyph unicode="&#xb0;" glyph-name="degree" horiz-adv-x="428" d="M214 398Q139 398 92 443T45 561Q45 632 91 678T214 724Q264 724 302 703T361 646T382 561Q382 489 336 444T214 398ZM214 478Q252 478 274 500T297 561Q297 599 274 622T214 645Q176 645 154
622T131 561Q131 523 153 501T214 478Z" />
<glyph unicode="&#xb1;" glyph-name="plusminus" horiz-adv-x="572" d="M332 419H525V326H332V131H238V326H46V419H238V615H332V419ZM46 0V93H525V0H46Z" />
<glyph unicode="&#xb2;" glyph-name="uni00B2" horiz-adv-x="368" d="M329 416H26V487L137 596Q171 629 189 650T215 689T222 725Q222 748 208 760T170 773Q147 773 124 763T76 730L25 794Q56 820 93 837T181 854Q245 854 283 823T322 733Q322 686 295 649T211
558L148 500H329V416Z" />
<glyph unicode="&#xb3;" glyph-name="uni00B3" horiz-adv-x="368" d="M177 853Q242 853 280 822T319 741Q319 668 239 642V637Q285 628 308 601T332 537Q332 478 290 443T157 408Q84 408 24 440V521Q57 503 90 492T156 481Q238 481 238 542Q238 568 217 584T146
601H90V670H140Q190 670 208 687T226 729Q226 753 211 766T169 779Q143 779 120 770T70 741L26 802Q56 824 92 838T177 853Z" />
<glyph unicode="&#xb4;" glyph-name="acute" horiz-adv-x="331" d="M291 756Q275 738 245 709T181 652T124 606H40V619Q55 637 75 663T114 716T147 766H291V756Z" />
<glyph unicode="&#xb5;" glyph-name="uni00B5" horiz-adv-x="646" d="M565 542V0H468L450 73H444Q421 32 388 11T307 -10Q274 -10 248 2T205 34H202Q204 18 205 -17T207 -84V-240H81V542H207V213Q207 92 307 92Q383 92 411 139T439 277V542H565Z" />
<glyph unicode="&#xb6;" glyph-name="paragraph" horiz-adv-x="655" d="M562 -127H491V678H402V-127H331V273Q301 264 260 264Q198 264 152 287T81 364T55 509Q55 605 82 659T160 737T275 760H562V-127Z" />
<glyph unicode="&#xb7;" glyph-name="middot" horiz-adv-x="279" d="M63 352Q63 394 85 411T139 429Q170 429 193 412T216 352Q216 311 193 293T139 275Q107 275 85 293T63 352Z" />
<glyph unicode="&#xb8;" glyph-name="cedilla" horiz-adv-x="213" d="M207 -128Q207 -182 173 -211T57 -240Q38 -240 22 -238T-6 -232V-160Q6 -163 24 -165T58 -168Q80 -168 93 -161T107 -133Q107 -91 23 -79L62 0H143L125 -39Q157 -48 182 -69T207 -128Z" />
<glyph unicode="&#xb9;" glyph-name="uni00B9" horiz-adv-x="368" d="M268 844V416H169V656Q169 678 170 707T173 752Q166 744 154 733T132 714L88 681L42 738L183 844H268Z" />
<glyph unicode="&#xba;" glyph-name="ordmasculine" horiz-adv-x="383" d="M354 548Q354 465 310 419T191 373Q120 373 75 418T30 548Q30 632 73 677T193 722Q263 722 308 677T354 548ZM115 548Q115 496 133 470T192 443Q232 443 250 469T268 548Q268 601 250
626T192 652Q151 652 133 627T115 548Z" />
<glyph unicode="&#xbb;" glyph-name="guillemotright" horiz-adv-x="575" d="M535 263L358 50L268 100L406 270L268 441L358 490L535 276V263ZM306 263L130 50L40 100L177 270L40 441L130 490L306 276V263Z" />
<glyph unicode="&#xbc;" glyph-name="onequarter" horiz-adv-x="798" d="M145 0L556 714H657L246 0H145ZM154 526Q154 548 155 577T158 622Q150 614 139 603T117 584L73 551L27 608L167 714H253V286H154V526ZM627 0V82H437V149L629 431H728V156H789V82H728V0H627ZM520
156H627V241Q627 261 628 286T630 335Q625 322 612 298T589 258L520 156Z" />
<glyph unicode="&#xbd;" glyph-name="onehalf" horiz-adv-x="835" d="M133 0L544 714H646L235 0H133ZM149 526Q149 548 150 577T153 622Q146 614 134 603T112 584L68 551L22 608L163 714H248V286H149V526ZM493 0V71L604 180Q638 213 656 234T682 273T689 309Q689
332 675 344T637 357Q614 357 591 347T543 314L492 378Q523 404 560 421T648 438Q712 438 750 407T789 317Q789 270 762 233T678 142L615 84H796V0H493Z" />
<glyph unicode="&#xbe;" glyph-name="threequarters" horiz-adv-x="821" d="M165 278Q93 278 33 310V391Q66 373 99 362T165 351Q246 351 246 412Q246 438 225 454T154 471H99V540H148Q199 540 217 557T235 599Q235 623 220 636T178 649Q152 649 129 640T79 611L34
672Q65 694 101 708T185 723Q250 723 288 692T327 611Q327 538 248 512V507Q293 498 317 471T341 407Q341 348 298 313T165 278ZM183 0L594 714H695L284 0H183ZM650 0V82H460V149L652 431H751V156H812V82H751V0H650ZM543 156H650V241Q650 261 651 286T653 335Q648
322 635 298T612 258L543 156Z" />
<glyph unicode="&#xbf;" glyph-name="questiondown" horiz-adv-x="461" d="M344 468Q344 426 322 409T267 391Q236 391 214 408T191 468Q191 509 213 527T267 545Q299 545 321 527T344 468ZM325 276Q325 224 306 189T235 115Q202 90 183 71T154 34T145 -10Q145
-48 171 -68T246 -88Q291 -88 331 -75T411 -42L456 -136Q410 -160 356 -176T237 -192Q136 -192 81 -143T26 -16Q26 27 39 57T79 114T143 169Q174 193 190 210T212 244T218 284V309H325V276Z" />
<glyph unicode="&#xc0;" glyph-name="Agrave" horiz-adv-x="671" d="M534 0L469 189H200L136 0H0L262 717H408L670 0H534ZM374 483Q370 497 362 521T347 570T335 613Q330 593 323 567T308 518T298 483L235 299H436L374 483ZM317 938Q330 916 349 889T388 835T424
791V778H341Q316 796 283 824T220 881T173 928V938H317Z" />
<glyph unicode="&#xc1;" glyph-name="Aacute" horiz-adv-x="671" d="M534 0L469 189H200L136 0H0L262 717H408L670 0H534ZM374 483Q370 497 362 521T347 570T335 613Q330 593 323 567T308 518T298 483L235 299H436L374 483ZM522 928Q506 910 476 881T412 824T355
778H271V791Q286 809 306 835T345 888T378 938H522V928Z" />
<glyph unicode="&#xc2;" glyph-name="Acircumflex" horiz-adv-x="671" d="M534 0L469 189H200L136 0H0L262 717H408L670 0H534ZM374 483Q370 497 362 521T347 570T335 613Q330 593 323 567T308 518T298 483L235 299H436L374 483ZM406 938Q419 916 441 889T488
835T531 790V778H446Q419 794 389 816T333 866Q307 839 279 817T223 778H139V790Q158 809 181 835T227 888T263 938H406Z" />
<glyph unicode="&#xc3;" glyph-name="Atilde" horiz-adv-x="671" d="M534 0L469 189H200L136 0H0L262 717H408L670 0H534ZM374 483Q370 497 362 521T347 570T335 613Q330 593 323 567T308 518T298 483L235 299H436L374 483ZM140 777Q146 848 180 884T264 920Q292
920 318 907T368 880T415 866Q453 866 466 921H531Q525 851 491 815T407 778Q380 778 354 791T304 818T256 832Q217 832 205 777H140Z" />
<glyph unicode="&#xc4;" glyph-name="Adieresis" horiz-adv-x="671" d="M534 0L469 189H200L136 0H0L262 717H408L670 0H534ZM374 483Q370 497 362 521T347 570T335 613Q330 593 323 567T308 518T298 483L235 299H436L374 483ZM177 856Q177 888 194 902T237 916Q261
916 279 902T298 856Q298 826 280 812T237 797Q212 797 195 811T177 856ZM371 856Q371 888 388 902T431 916Q455 916 473 902T492 856Q492 826 474 812T431 797Q406 797 389 811T371 856Z" />
<glyph unicode="&#xc5;" glyph-name="Aring" horiz-adv-x="671" d="M534 0L469 189H200L136 0H0L262 717H408L670 0H534ZM374 483Q370 497 362 521T347 570T335 613Q330 593 323 567T308 518T298 483L235 299H436L374 483ZM333 655Q281 655 249 685T217 768Q217
820 249 849T333 879Q384 879 418 850T453 769Q453 715 419 685T333 655ZM333 717Q355 717 369 730T384 768Q384 791 370 804T333 818Q312 818 298 805T283 768Q283 744 296 731T333 717Z" />
<glyph unicode="&#xc6;" glyph-name="AE" horiz-adv-x="925" d="M866 0H460V189H216L131 0H0L327 714H866V607H588V425H847V318H588V108H866V0ZM264 299H460V603H400L264 299Z" />
<glyph unicode="&#xc7;" glyph-name="Ccedilla" horiz-adv-x="635" d="M397 616Q299 616 246 546T192 356Q192 235 242 167T396 98Q441 98 484 107T574 133V24Q530 6 486 -2T383 -10Q273 -10 201 35T94 163T59 357Q59 465 98 547T212 677T397 724Q451 724 503
712T602 677L558 572Q520 589 480 602T397 616ZM481 -128Q481 -182 447 -211T331 -240Q312 -240 296 -238T268 -232V-160Q280 -163 298 -165T332 -168Q354 -168 367 -161T381 -133Q381 -91 297 -79L336 0H417L399 -39Q431 -48 456 -69T481 -128Z" />
<glyph unicode="&#xc8;" glyph-name="Egrave" horiz-adv-x="558" d="M499 0H93V714H499V607H221V425H481V318H221V108H499V0ZM285 938Q298 916 317 889T356 835T392 791V778H309Q284 796 251 824T188 881T141 928V938H285Z" />
<glyph unicode="&#xc9;" glyph-name="Eacute" horiz-adv-x="558" d="M499 0H93V714H499V607H221V425H481V318H221V108H499V0ZM489 928Q473 910 443 881T379 824T322 778H238V791Q253 809 273 835T312 888T345 938H489V928Z" />
<glyph unicode="&#xca;" glyph-name="Ecircumflex" horiz-adv-x="558" d="M499 0H93V714H499V607H221V425H481V318H221V108H499V0ZM374 938Q387 916 409 889T456 835T499 790V778H414Q387 794 357 816T301 866Q275 839 247 817T191 778H107V790Q126 809 149 835T195
888T231 938H374Z" />
<glyph unicode="&#xcb;" glyph-name="Edieresis" horiz-adv-x="558" d="M499 0H93V714H499V607H221V425H481V318H221V108H499V0ZM145 856Q145 888 162 902T205 916Q229 916 247 902T266 856Q266 826 248 812T205 797Q180 797 163 811T145 856ZM339 856Q339 888
356 902T399 916Q423 916 441 902T460 856Q460 826 442 812T399 797Q374 797 357 811T339 856Z" />
<glyph unicode="&#xcc;" glyph-name="Igrave" horiz-adv-x="370" d="M335 0H35V73L121 105V608L35 641V714H335V641L249 608V105L335 73V0ZM168 938Q181 916 200 889T239 835T275 791V778H192Q167 796 134 824T71 881T24 928V938H168Z" />
<glyph unicode="&#xcd;" glyph-name="Iacute" horiz-adv-x="370" d="M335 0H35V73L121 105V608L35 641V714H335V641L249 608V105L335 73V0ZM372 928Q356 910 326 881T262 824T205 778H121V791Q136 809 156 835T195 888T228 938H372V928Z" />
<glyph unicode="&#xce;" glyph-name="Icircumflex" horiz-adv-x="370" d="M335 0H35V73L121 105V608L35 641V714H335V641L249 608V105L335 73V0ZM257 938Q270 916 292 889T339 835T382 790V778H297Q270 794 240 816T184 866Q158 839 130 817T74 778H-10V790Q9
809 32 835T78 888T114 938H257Z" />
<glyph unicode="&#xcf;" glyph-name="Idieresis" horiz-adv-x="370" d="M335 0H35V73L121 105V608L35 641V714H335V641L249 608V105L335 73V0ZM28 856Q28 888 45 902T88 916Q112 916 130 902T149 856Q149 826 131 812T88 797Q63 797 46 811T28 856ZM222 856Q222
888 239 902T282 916Q306 916 324 902T343 856Q343 826 325 812T282 797Q257 797 240 811T222 856Z" />
<glyph unicode="&#xd0;" glyph-name="Eth" horiz-adv-x="736" d="M315 714Q425 714 506 674T632 557T677 364Q677 183 576 92T293 0H95V300H26V406H95V714H315ZM315 608H223V406H363V300H223V107H297Q543 107 543 360Q543 488 484 548T315 608Z" />
<glyph unicode="&#xd1;" glyph-name="Ntilde" horiz-adv-x="793" d="M700 0H541L203 560H199Q202 515 204 464T208 360V0H93V714H251L588 158H591Q589 198 587 250T584 351V714H700V0ZM202 777Q208 848 242 884T326 920Q354 920 380 907T430 880T477 866Q515 866
528 921H593Q587 851 553 815T469 778Q442 778 416 791T366 818T318 832Q279 832 267 777H202Z" />
<glyph unicode="&#xd2;" glyph-name="Ograve" horiz-adv-x="790" d="M731 358Q731 247 695 165T583 36T395 -10Q281 -10 207 36T96 165T59 359Q59 469 95 551T206 679T396 725Q509 725 583 680T694 552T731 358ZM194 358Q194 237 242 168T395 99Q501 99 548 168T596
358Q596 479 549 548T396 617Q291 617 243 548T194 358ZM378 938Q391 916 410 889T449 835T485 791V778H402Q377 796 344 824T281 881T234 928V938H378Z" />
<glyph unicode="&#xd3;" glyph-name="Oacute" horiz-adv-x="790" d="M731 358Q731 247 695 165T583 36T395 -10Q281 -10 207 36T96 165T59 359Q59 469 95 551T206 679T396 725Q509 725 583 680T694 552T731 358ZM194 358Q194 237 242 168T395 99Q501 99 548 168T596
358Q596 479 549 548T396 617Q291 617 243 548T194 358ZM582 928Q566 910 536 881T472 824T415 778H331V791Q346 809 366 835T405 888T438 938H582V928Z" />
<glyph unicode="&#xd4;" glyph-name="Ocircumflex" horiz-adv-x="790" d="M731 358Q731 247 695 165T583 36T395 -10Q281 -10 207 36T96 165T59 359Q59 469 95 551T206 679T396 725Q509 725 583 680T694 552T731 358ZM194 358Q194 237 242 168T395 99Q501 99 548
168T596 358Q596 479 549 548T396 617Q291 617 243 548T194 358ZM467 938Q480 916 502 889T549 835T592 790V778H507Q480 794 450 816T394 866Q368 839 340 817T284 778H200V790Q219 809 242 835T288 888T324 938H467Z" />
<glyph unicode="&#xd5;" glyph-name="Otilde" horiz-adv-x="790" d="M731 358Q731 247 695 165T583 36T395 -10Q281 -10 207 36T96 165T59 359Q59 469 95 551T206 679T396 725Q509 725 583 680T694 552T731 358ZM194 358Q194 237 242 168T395 99Q501 99 548 168T596
358Q596 479 549 548T396 617Q291 617 243 548T194 358ZM201 777Q207 848 241 884T325 920Q353 920 379 907T429 880T476 866Q514 866 527 921H592Q586 851 552 815T468 778Q441 778 415 791T365 818T317 832Q278 832 266 777H201Z" />
<glyph unicode="&#xd6;" glyph-name="Odieresis" horiz-adv-x="790" d="M731 358Q731 247 695 165T583 36T395 -10Q281 -10 207 36T96 165T59 359Q59 469 95 551T206 679T396 725Q509 725 583 680T694 552T731 358ZM194 358Q194 237 242 168T395 99Q501 99 548
168T596 358Q596 479 549 548T396 617Q291 617 243 548T194 358ZM238 856Q238 888 255 902T298 916Q322 916 340 902T359 856Q359 826 341 812T298 797Q273 797 256 811T238 856ZM432 856Q432 888 449 902T492 916Q516 916 534 902T553 856Q553 826 535 812T492
797Q467 797 450 811T432 856Z" />
<glyph unicode="&#xd7;" glyph-name="multiply" horiz-adv-x="572" d="M442 575L507 510L350 353L506 197L441 131L284 287L129 132L64 197L218 353L63 508L129 575L284 419L442 575Z" />
<glyph unicode="&#xd8;" glyph-name="Oslash" horiz-adv-x="790" d="M731 358Q731 247 695 165T583 36T395 -10Q294 -10 223 28L178 -39L106 9L153 78Q105 127 82 198T59 359Q59 469 95 551T206 679T396 725Q447 725 490 715T568 687L611 750L683 703L637 636Q684
588 707 517T731 358ZM194 358Q194 307 202 265T229 190L503 590Q459 617 396 617Q291 617 243 548T194 358ZM596 358Q596 462 562 524L289 125Q310 112 336 106T395 99Q501 99 548 168T596 358Z" />
<glyph unicode="&#xd9;" glyph-name="Ugrave" horiz-adv-x="747" d="M659 252Q659 178 628 119T532 25T370 -10Q231 -10 159 62T87 254V714H215V267Q215 179 255 139T374 99Q457 99 494 142T532 268V714H659V252ZM356 938Q369 916 388 889T427 835T463 791V778H380Q355
796 322 824T259 881T212 928V938H356Z" />
<glyph unicode="&#xda;" glyph-name="Uacute" horiz-adv-x="747" d="M659 252Q659 178 628 119T532 25T370 -10Q231 -10 159 62T87 254V714H215V267Q215 179 255 139T374 99Q457 99 494 142T532 268V714H659V252ZM560 928Q544 910 514 881T450 824T393 778H309V791Q324
809 344 835T383 888T416 938H560V928Z" />
<glyph unicode="&#xdb;" glyph-name="Ucircumflex" horiz-adv-x="747" d="M659 252Q659 178 628 119T532 25T370 -10Q231 -10 159 62T87 254V714H215V267Q215 179 255 139T374 99Q457 99 494 142T532 268V714H659V252ZM445 938Q458 916 480 889T527 835T570 790V778H485Q458
794 428 816T372 866Q346 839 318 817T262 778H178V790Q197 809 220 835T266 888T302 938H445Z" />
<glyph unicode="&#xdc;" glyph-name="Udieresis" horiz-adv-x="747" d="M659 252Q659 178 628 119T532 25T370 -10Q231 -10 159 62T87 254V714H215V267Q215 179 255 139T374 99Q457 99 494 142T532 268V714H659V252ZM216 856Q216 888 233 902T276 916Q300 916
318 902T337 856Q337 826 319 812T276 797Q251 797 234 811T216 856ZM410 856Q410 888 427 902T470 916Q494 916 512 902T531 856Q531 826 513 812T470 797Q445 797 428 811T410 856Z" />
<glyph unicode="&#xdd;" glyph-name="Yacute" horiz-adv-x="602" d="M301 399L464 714H602L365 278V0H237V273L0 714H139L301 399ZM488 928Q472 910 442 881T378 824T321 778H237V791Q252 809 272 835T311 888T344 938H488V928Z" />
<glyph unicode="&#xde;" glyph-name="Thorn" horiz-adv-x="619" d="M572 378Q572 318 547 265T461 180T298 148H221V0H93V714H221V597H311Q448 597 510 538T572 378ZM278 252Q362 252 402 281T442 376Q442 435 406 463T292 492H221V252H278Z" />
<glyph unicode="&#xdf;" glyph-name="germandbls" horiz-adv-x="681" d="M577 610Q577 574 563 548T528 502T486 467T451 438T437 409Q437 396 445 386T475 361T534 322Q584 289 613 253T642 157Q642 73 587 32T432 -10Q340 -10 285 22V125Q309 110 348 97T424
83Q514 83 514 153Q514 173 507 188T479 219T422 258Q360 295 337 324T313 393Q313 424 326 446T360 484T401 516T435 549T449 592Q449 627 416 646T332 665Q279 665 243 642T207 563V0H81V567Q81 636 114 680T203 744T332 765Q403 765 458 748T545 696T577 610Z"
/>
<glyph unicode="&#xe0;" glyph-name="agrave" horiz-adv-x="588" d="M297 552Q402 552 456 506T511 364V0H422L397 75H393Q358 31 319 11T213 -10Q140 -10 92 31T44 158Q44 242 105 284T292 331L386 334V361Q386 412 361 434T291 457Q250 457 213 445T138 417L98
505Q138 526 189 539T297 552ZM320 254Q237 251 205 226T173 157Q173 118 195 102T255 85Q310 85 348 116T386 210V256L320 254ZM276 766Q289 744 308 717T347 663T383 619V606H300Q275 624 242 652T179 709T132 756V766H276Z" />
<glyph unicode="&#xe1;" glyph-name="aacute" horiz-adv-x="588" d="M297 552Q402 552 456 506T511 364V0H422L397 75H393Q358 31 319 11T213 -10Q140 -10 92 31T44 158Q44 242 105 284T292 331L386 334V361Q386 412 361 434T291 457Q250 457 213 445T138 417L98
505Q138 526 189 539T297 552ZM320 254Q237 251 205 226T173 157Q173 118 195 102T255 85Q310 85 348 116T386 210V256L320 254ZM481 756Q465 738 435 709T371 652T314 606H230V619Q245 637 265 663T304 716T337 766H481V756Z" />
<glyph unicode="&#xe2;" glyph-name="acircumflex" horiz-adv-x="588" d="M297 552Q402 552 456 506T511 364V0H422L397 75H393Q358 31 319 11T213 -10Q140 -10 92 31T44 158Q44 242 105 284T292 331L386 334V361Q386 412 361 434T291 457Q250 457 213 445T138
417L98 505Q138 526 189 539T297 552ZM320 254Q237 251 205 226T173 157Q173 118 195 102T255 85Q310 85 348 116T386 210V256L320 254ZM365 766Q378 744 400 717T447 663T490 618V606H405Q378 622 348 644T292 694Q266 667 238 645T182 606H98V618Q117 637 140
663T186 716T222 766H365Z" />
<glyph unicode="&#xe3;" glyph-name="atilde" horiz-adv-x="588" d="M297 552Q402 552 456 506T511 364V0H422L397 75H393Q358 31 319 11T213 -10Q140 -10 92 31T44 158Q44 242 105 284T292 331L386 334V361Q386 412 361 434T291 457Q250 457 213 445T138 417L98
505Q138 526 189 539T297 552ZM320 254Q237 251 205 226T173 157Q173 118 195 102T255 85Q310 85 348 116T386 210V256L320 254ZM99 605Q105 676 139 712T223 748Q251 748 277 735T327 708T374 694Q412 694 425 749H490Q484 679 450 643T366 606Q339 606 313 619T263
646T215 660Q176 660 164 605H99Z" />
<glyph unicode="&#xe4;" glyph-name="adieresis" horiz-adv-x="588" d="M297 552Q402 552 456 506T511 364V0H422L397 75H393Q358 31 319 11T213 -10Q140 -10 92 31T44 158Q44 242 105 284T292 331L386 334V361Q386 412 361 434T291 457Q250 457 213 445T138 417L98
505Q138 526 189 539T297 552ZM320 254Q237 251 205 226T173 157Q173 118 195 102T255 85Q310 85 348 116T386 210V256L320 254ZM393 684Q393 716 410 730T453 744Q477 744 495 730T514 684Q514 654 496 640T453 625Q428 625 411 639T393 684ZM587 684Q587 716
604 730T647 744Q671 744 689 730T708 684Q708 654 690 640T647 625Q622 625 605 639T587 684Z" />
<glyph unicode="&#xe5;" glyph-name="aring" horiz-adv-x="588" d="M297 552Q402 552 456 506T511 364V0H422L397 75H393Q358 31 319 11T213 -10Q140 -10 92 31T44 158Q44 242 105 284T292 331L386 334V361Q386 412 361 434T291 457Q250 457 213 445T138 417L98
505Q138 526 189 539T297 552ZM320 254Q237 251 205 226T173 157Q173 118 195 102T255 85Q310 85 348 116T386 210V256L320 254ZM292 605Q240 605 208 635T176 718Q176 770 208 799T292 829Q343 829 377 800T412 719Q412 665 378 635T292 605ZM292 667Q314 667
328 680T343 718Q343 741 329 754T292 768Q271 768 257 755T242 718Q242 694 255 681T292 667Z" />
<glyph unicode="&#xe6;" glyph-name="ae" horiz-adv-x="897" d="M627 552Q728 552 789 487T851 307V242H502Q504 167 541 127T645 87Q694 87 737 97T823 128V27Q782 8 740 -1T639 -10Q571 -10 518 16T430 96Q403 61 375 38T309 2T216 -10Q168 -10 129 8T67 63T44
158Q44 242 103 284T283 331L374 334V372Q374 418 349 437T282 457Q242 457 205 446T132 418L92 505Q132 526 184 539T290 552Q406 552 456 480Q486 515 528 533T627 552ZM624 459Q572 459 541 427T504 330H729Q728 387 702 423T624 459ZM311 254Q233 251 203 226T173
157Q173 118 194 102T251 85Q303 85 338 116T374 210V256L311 254Z" />
<glyph unicode="&#xe7;" glyph-name="ccedilla" horiz-adv-x="501" d="M300 -10Q183 -10 116 57T49 268Q49 368 82 430T175 522T310 552Q361 552 401 542T469 518L432 419Q401 431 370 439T310 448Q178 448 178 269Q178 182 211 138T308 94Q353 94 388 105T455
135V26Q424 8 389 -1T300 -10ZM398 -128Q398 -182 364 -211T248 -240Q229 -240 213 -238T185 -232V-160Q197 -163 215 -165T249 -168Q271 -168 284 -161T298 -133Q298 -91 214 -79L253 0H334L316 -39Q348 -48 373 -69T398 -128Z" />
<glyph unicode="&#xe8;" glyph-name="egrave" horiz-adv-x="581" d="M299 552Q408 552 471 487T535 306V242H177Q179 168 218 128T326 87Q378 87 420 97T506 128V27Q466 8 423 -1T320 -10Q241 -10 180 20T84 113T49 267Q49 406 118 479T299 552ZM299 459Q248 459
217 427T180 330H413Q412 386 385 422T299 459ZM274 766Q287 744 306 717T345 663T381 619V606H298Q273 624 240 652T177 709T130 756V766H274Z" />
<glyph unicode="&#xe9;" glyph-name="eacute" horiz-adv-x="581" d="M299 552Q408 552 471 487T535 306V242H177Q179 168 218 128T326 87Q378 87 420 97T506 128V27Q466 8 423 -1T320 -10Q241 -10 180 20T84 113T49 267Q49 406 118 479T299 552ZM299 459Q248 459
217 427T180 330H413Q412 386 385 422T299 459ZM479 756Q463 738 433 709T369 652T312 606H228V619Q243 637 263 663T302 716T335 766H479V756Z" />
<glyph unicode="&#xea;" glyph-name="ecircumflex" horiz-adv-x="581" d="M299 552Q408 552 471 487T535 306V242H177Q179 168 218 128T326 87Q378 87 420 97T506 128V27Q466 8 423 -1T320 -10Q241 -10 180 20T84 113T49 267Q49 406 118 479T299 552ZM299 459Q248
459 217 427T180 330H413Q412 386 385 422T299 459ZM363 766Q376 744 398 717T445 663T488 618V606H403Q376 622 346 644T290 694Q264 667 236 645T180 606H96V618Q115 637 138 663T184 716T220 766H363Z" />
<glyph unicode="&#xeb;" glyph-name="edieresis" horiz-adv-x="581" d="M299 552Q408 552 471 487T535 306V242H177Q179 168 218 128T326 87Q378 87 420 97T506 128V27Q466 8 423 -1T320 -10Q241 -10 180 20T84 113T49 267Q49 406 118 479T299 552ZM299 459Q248
459 217 427T180 330H413Q412 386 385 422T299 459ZM391 684Q391 716 408 730T451 744Q475 744 493 730T512 684Q512 654 494 640T451 625Q426 625 409 639T391 684ZM585 684Q585 716 602 730T645 744Q669 744 687 730T706 684Q706 654 688 640T645 625Q620 625
603 639T585 684Z" />
<glyph unicode="&#xec;" glyph-name="igrave" horiz-adv-x="287" d="M207 0H81V542H207V0ZM382 766Q395 744 414 717T453 663T489 619V606H406Q381 624 348 652T285 709T238 756V766H382Z" />
<glyph unicode="&#xed;" glyph-name="iacute" horiz-adv-x="287" d="M207 0H81V542H207V0ZM331 756Q315 738 285 709T221 652T164 606H80V619Q95 637 115 663T154 716T187 766H331V756Z" />
<glyph unicode="&#xee;" glyph-name="icircumflex" horiz-adv-x="287" d="M207 0H81V542H207V0ZM471 766Q484 744 506 717T553 663T596 618V606H511Q484 622 454 644T398 694Q372 667 344 645T288 606H204V618Q223 637 246 663T292 716T328 766H471Z" />
<glyph unicode="&#xef;" glyph-name="idieresis" horiz-adv-x="287" d="M207 0H81V542H207V0ZM-13 684Q-13 716 4 730T47 744Q71 744 89 730T108 684Q108 654 90 640T47 625Q22 625 5 639T-13 684ZM181 684Q181 716 198 730T241 744Q265 744 283 730T302 684Q302
654 284 640T241 625Q216 625 199 639T181 684Z" />
<glyph unicode="&#xf0;" glyph-name="eth" horiz-adv-x="614" d="M221 765Q255 750 287 732T347 695L459 762L504 695L415 642Q486 577 525 488T565 278Q565 138 495 64T305 -10Q231 -10 173 19T82 104T49 237Q49 314 78 368T161 452T284 481Q387 481 426 429L430
431Q414 478 387 516T325 587L206 516L161 584L257 641Q238 653 218 665T177 689L221 765ZM307 386Q238 386 208 348T177 235Q177 169 208 128T307 86Q376 86 406 129T437 257Q437 309 406 347T307 386Z" />
<glyph unicode="&#xf1;" glyph-name="ntilde" horiz-adv-x="642" d="M371 552Q462 552 513 505T565 353V0H439V328Q439 450 339 450Q263 450 235 402T207 265V0H81V542H178L196 471H203Q229 513 274 532T371 552ZM127 605Q133 676 167 712T251 748Q279 748 305
735T355 708T402 694Q440 694 453 749H518Q512 679 478 643T394 606Q367 606 341 619T291 646T243 660Q204 660 192 605H127Z" />
<glyph unicode="&#xf2;" glyph-name="ograve" horiz-adv-x="614" d="M565 272Q565 137 495 64T305 -10Q231 -10 173 23T82 119T49 272Q49 407 118 479T308 552Q383 552 441 520T532 425T565 272ZM178 272Q178 186 208 139T307 92Q375 92 405 139T436 272Q436 358
406 404T306 450Q239 450 209 404T178 272ZM290 766Q303 744 322 717T361 663T397 619V606H314Q289 624 256 652T193 709T146 756V766H290Z" />
<glyph unicode="&#xf3;" glyph-name="oacute" horiz-adv-x="614" d="M565 272Q565 137 495 64T305 -10Q231 -10 173 23T82 119T49 272Q49 407 118 479T308 552Q383 552 441 520T532 425T565 272ZM178 272Q178 186 208 139T307 92Q375 92 405 139T436 272Q436 358
406 404T306 450Q239 450 209 404T178 272ZM494 756Q478 738 448 709T384 652T327 606H243V619Q258 637 278 663T317 716T350 766H494V756Z" />
<glyph unicode="&#xf4;" glyph-name="ocircumflex" horiz-adv-x="614" d="M565 272Q565 137 495 64T305 -10Q231 -10 173 23T82 119T49 272Q49 407 118 479T308 552Q383 552 441 520T532 425T565 272ZM178 272Q178 186 208 139T307 92Q375 92 405 139T436 272Q436
358 406 404T306 450Q239 450 209 404T178 272ZM379 766Q392 744 414 717T461 663T504 618V606H419Q392 622 362 644T306 694Q280 667 252 645T196 606H112V618Q131 637 154 663T200 716T236 766H379Z" />
<glyph unicode="&#xf5;" glyph-name="otilde" horiz-adv-x="614" d="M565 272Q565 137 495 64T305 -10Q231 -10 173 23T82 119T49 272Q49 407 118 479T308 552Q383 552 441 520T532 425T565 272ZM178 272Q178 186 208 139T307 92Q375 92 405 139T436 272Q436 358
406 404T306 450Q239 450 209 404T178 272ZM113 605Q119 676 153 712T237 748Q265 748 291 735T341 708T388 694Q426 694 439 749H504Q498 679 464 643T380 606Q353 606 327 619T277 646T229 660Q190 660 178 605H113Z" />
<glyph unicode="&#xf6;" glyph-name="odieresis" horiz-adv-x="614" d="M565 272Q565 137 495 64T305 -10Q231 -10 173 23T82 119T49 272Q49 407 118 479T308 552Q383 552 441 520T532 425T565 272ZM178 272Q178 186 208 139T307 92Q375 92 405 139T436 272Q436
358 406 404T306 450Q239 450 209 404T178 272ZM150 684Q150 716 167 730T210 744Q234 744 252 730T271 684Q271 654 253 640T210 625Q185 625 168 639T150 684ZM344 684Q344 716 361 730T404 744Q428 744 446 730T465 684Q465 654 447 640T404 625Q379 625 362
639T344 684Z" />
<glyph unicode="&#xf7;" glyph-name="divide" horiz-adv-x="572" d="M285 454Q259 454 241 470T222 523Q222 561 240 576T285 592Q310 592 329 577T348 523Q348 487 329 471T285 454ZM46 306V399H525V306H46ZM285 113Q259 113 241 129T222 182Q222 220 240 235T285
251Q310 251 329 236T348 182Q348 146 329 130T285 113Z" />
<glyph unicode="&#xf8;" glyph-name="oslash" horiz-adv-x="614" d="M565 272Q565 137 495 64T305 -10Q240 -10 186 16L150 -35L81 11L119 65Q85 101 67 153T49 272Q49 407 118 479T308 552Q376 552 433 523L465 569L533 522L499 472Q530 437 547 387T565 272ZM178
272Q178 211 192 173L372 433Q345 450 306 450Q239 450 209 404T178 272ZM436 272Q436 324 424 361L247 105Q271 92 307 92Q375 92 405 139T436 272Z" />
<glyph unicode="&#xf9;" glyph-name="ugrave" horiz-adv-x="642" d="M562 542V0H463L446 70H440Q413 28 368 9T271 -10Q180 -10 129 37T77 188V542H203V213Q203 92 303 92Q379 92 407 139T436 277V542H562ZM304 766Q317 744 336 717T375 663T411 619V606H328Q303
624 270 652T207 709T160 756V766H304Z" />
<glyph unicode="&#xfa;" glyph-name="uacute" horiz-adv-x="642" d="M562 542V0H463L446 70H440Q413 28 368 9T271 -10Q180 -10 129 37T77 188V542H203V213Q203 92 303 92Q379 92 407 139T436 277V542H562ZM508 756Q492 738 462 709T398 652T341 606H257V619Q272
637 292 663T331 716T364 766H508V756Z" />
<glyph unicode="&#xfb;" glyph-name="ucircumflex" horiz-adv-x="642" d="M562 542V0H463L446 70H440Q413 28 368 9T271 -10Q180 -10 129 37T77 188V542H203V213Q203 92 303 92Q379 92 407 139T436 277V542H562ZM393 766Q406 744 428 717T475 663T518 618V606H433Q406
622 376 644T320 694Q294 667 266 645T210 606H126V618Q145 637 168 663T214 716T250 766H393Z" />
<glyph unicode="&#xfc;" glyph-name="udieresis" horiz-adv-x="642" d="M562 542V0H463L446 70H440Q413 28 368 9T271 -10Q180 -10 129 37T77 188V542H203V213Q203 92 303 92Q379 92 407 139T436 277V542H562ZM164 684Q164 716 181 730T224 744Q248 744 266 730T285
684Q285 654 267 640T224 625Q199 625 182 639T164 684ZM358 684Q358 716 375 730T418 744Q442 744 460 730T479 684Q479 654 461 640T418 625Q393 625 376 639T358 684Z" />
<glyph unicode="&#xfd;" glyph-name="yacute" horiz-adv-x="547" d="M0 542H137L245 236Q256 207 263 179T273 122H277Q281 147 289 177T307 236L411 542H547L316 -72Q285 -153 232 -196T100 -240Q75 -240 57 -238T25 -232V-132Q36 -134 51 -136T84 -138Q131 -138
158 -111T201 -42L217 2L0 542ZM460 756Q444 738 414 709T350 652T293 606H209V619Q224 637 244 663T283 716T316 766H460V756Z" />
<glyph unicode="&#xfe;" glyph-name="thorn" horiz-adv-x="626" d="M577 272Q577 133 519 62T366 -10Q306 -10 268 11T207 61H200Q202 48 204 23T207 -18V-240H81V760H207V557Q207 536 205 511T201 471H207Q229 505 267 528T366 552Q460 552 518 481T577 272ZM448
274Q448 362 420 406T331 450Q263 450 236 410T207 290V273Q207 186 233 140T332 93Q392 93 420 139T448 274Z" />
<glyph unicode="&#xff;" glyph-name="ydieresis" horiz-adv-x="547" d="M0 542H137L245 236Q256 207 263 179T273 122H277Q281 147 289 177T307 236L411 542H547L316 -72Q285 -153 232 -196T100 -240Q75 -240 57 -238T25 -232V-132Q36 -134 51 -136T84 -138Q131
-138 158 -111T201 -42L217 2L0 542ZM372 684Q372 716 389 730T432 744Q456 744 474 730T493 684Q493 654 475 640T432 625Q407 625 390 639T372 684ZM566 684Q566 716 583 730T626 744Q650 744 668 730T687 684Q687 654 669 640T626 625Q601 625 584 639T566 684Z"
/>
<glyph unicode="&#x2013;" glyph-name="endash" horiz-adv-x="500" d="M40 219V318H460V219H40Z" />
<glyph unicode="&#x2014;" glyph-name="emdash" horiz-adv-x="1000" d="M40 219V318H960V219H40Z" />
<glyph unicode="&#x2018;" glyph-name="quoteleft" horiz-adv-x="201" d="M12 480Q26 533 50 596T98 714H189Q175 656 161 589T140 469H19L12 480Z" />
<glyph unicode="&#x2019;" glyph-name="quoteright" horiz-adv-x="201" d="M189 703Q176 650 152 587T103 469H12Q26 527 40 594T61 714H182L189 703Z" />
<glyph unicode="&#x201a;" glyph-name="quotesinglbase" horiz-adv-x="272" d="M208 105Q195 52 171 -11T122 -129H31Q45 -71 59 -4T80 116H201L208 105Z" />
<glyph unicode="&#x201c;" glyph-name="quotedblleft" horiz-adv-x="413" d="M401 714Q386 655 373 588T351 469H230L223 480Q237 533 261 596T309 714H401ZM189 714Q175 655 161 588T139 469H19L12 480Q26 533 49 596T98 714H189Z" />
<glyph unicode="&#x201d;" glyph-name="quotedblright" horiz-adv-x="413" d="M401 703Q387 650 363 587T315 469H223Q237 527 251 594T273 714H394L401 703ZM189 703Q175 650 151 587T103 469H12Q26 527 40 594T61 714H182L189 703Z" />
<glyph unicode="&#x201e;" glyph-name="quotedblbase" horiz-adv-x="476" d="M420 105Q406 52 382 -11T334 -129H242Q256 -71 270 -4T292 116H413L420 105ZM208 105Q194 52 170 -11T122 -129H31Q45 -71 59 -4T80 116H201L208 105Z" />
<glyph unicode="&#x2022;" glyph-name="bullet" horiz-adv-x="376" d="M59 365Q59 443 96 475T188 508Q242 508 279 476T317 365Q317 289 280 256T188 222Q133 222 96 255T59 365Z" />
<glyph unicode="&#x2039;" glyph-name="guilsinglleft" horiz-adv-x="346" d="M40 276L216 490L307 441L169 270L307 100L216 50L40 263V276Z" />
<glyph unicode="&#x203a;" glyph-name="guilsinglright" horiz-adv-x="346" d="M130 490L306 276V263L130 50L40 100L177 270L40 441L130 490Z" />
</font>
</defs>
</svg>
