<svg class="orcid_icon" viewBox="0 0 32 32" fill="none" xmlns="http://www.w3.org/2000/svg">
	<path fill-rule="evenodd" clip-rule="evenodd" d="M29.474 16c0 7.442-6.032 13.474-13.474 13.474S2.526 23.442 2.526 16 8.558 2.526 16 2.526 29.474 8.558 29.474 16Z" fill="#fff"/>
	<path fill-rule="evenodd" clip-rule="evenodd" d="M32 16c0 8.837-7.163 16-16 16S0 24.837 0 16 7.163 0 16 0s16 7.163 16 16ZM16 29.474c7.442 0 13.474-6.032 13.474-13.474S23.442 2.526 16 2.526 2.526 8.558 2.526 16 8.558 29.474 16 29.474Z" fill="#7FAA26"/>
	<path fill-rule="evenodd" clip-rule="evenodd" d="M18.22 10.973h-4.547v11.6h4.569c3.8 0 6.133-2.82 6.133-5.8 0-1.365-.469-2.815-1.478-3.925-1.013-1.115-2.557-1.875-4.676-1.875Zm-.177 9.732h-2.347v-7.864h2.264c1.521 0 2.603.46 3.304 1.167.703.709 1.046 1.688 1.046 2.765 0 .654-.2 1.641-.83 2.46-.621.808-1.677 1.473-3.437 1.473Zm-.083-8.073c3.13 0 4.558 1.898 4.558 4.141 0-2.243-1.429-4.141-4.558-4.141h-2.472 2.472Zm6.205 4.017.001.124c0 2.869-2.242 5.591-5.924 5.591h-4.36V11.182v11.182h4.36c3.682 0 5.924-2.722 5.924-5.591l-.001-.124ZM9.5 11.005v11.588h2.024V11.005H9.5Zm1.815.208v11.172-11.172H9.71h1.606ZM10.512 10.15c.7 0 1.262-.575 1.262-1.263 0-.687-.561-1.262-1.262-1.262-.7 0-1.262.563-1.262 1.262 0 .688.561 1.262 1.262 1.262Zm.614-.408a1.044 1.044 0 0 0 0 0Z" fill="#7FAA26"/>
</svg>
